<svg id="visual" viewBox="0 0 960 75" width="960" height="75" xmlns="http://www.w3.org/2000/svg" xmlns:xlink="http://www.w3.org/1999/xlink" version="1.1"><path d="M0 55L7 57.2C14 59.3 28 63.7 41.8 65.7C55.7 67.7 69.3 67.3 83.2 67C97 66.7 111 66.3 125 67.5C139 68.7 153 71.3 167 71C181 70.7 195 67.3 208.8 64.2C222.7 61 236.3 58 250.2 59.7C264 61.3 278 67.7 292 67.3C306 67 320 60 334 59.7C348 59.3 362 65.7 375.8 65.8C389.7 66 403.3 60 417.2 57.7C431 55.3 445 56.7 459 58C473 59.3 487 60.7 501 62.3C515 64 529 66 542.8 64.8C556.7 63.7 570.3 59.3 584.2 58C598 56.7 612 58.3 626 58.2C640 58 654 56 668 57C682 58 696 62 709.8 62.2C723.7 62.3 737.3 58.7 751.2 59.7C765 60.7 779 66.3 793 65.3C807 64.3 821 56.7 835 56.3C849 56 863 63 876.8 65.5C890.7 68 904.3 66 918.2 66C932 66 946 68 953 69L960 70L960 0L953 0C946 0 932 0 918.2 0C904.3 0 890.7 0 876.8 0C863 0 849 0 835 0C821 0 807 0 793 0C779 0 765 0 751.2 0C737.3 0 723.7 0 709.8 0C696 0 682 0 668 0C654 0 640 0 626 0C612 0 598 0 584.2 0C570.3 0 556.7 0 542.8 0C529 0 515 0 501 0C487 0 473 0 459 0C445 0 431 0 417.2 0C403.3 0 389.7 0 375.8 0C362 0 348 0 334 0C320 0 306 0 292 0C278 0 264 0 250.2 0C236.3 0 222.7 0 208.8 0C195 0 181 0 167 0C153 0 139 0 125 0C111 0 97 0 83.2 0C69.3 0 55.7 0 41.8 0C28 0 14 0 7 0L0 0Z" fill="#91ff9d"></path><path d="M0 50L7 48.5C14 47 28 44 41.8 44C55.7 44 69.3 47 83.2 50.2C97 53.3 111 56.7 125 55C139 53.3 153 46.7 167 45C181 43.3 195 46.7 208.8 49.8C222.7 53 236.3 56 250.2 54.5C264 53 278 47 292 43.7C306 40.3 320 39.7 334 41.5C348 43.3 362 47.7 375.8 48C389.7 48.3 403.3 44.7 417.2 42.8C431 41 445 41 459 43.3C473 45.7 487 50.3 501 53C515 55.7 529 56.3 542.8 54.2C556.7 52 570.3 47 584.2 46.3C598 45.7 612 49.3 626 51.7C640 54 654 55 668 55.8C682 56.7 696 57.3 709.8 57.7C723.7 58 737.3 58 751.2 56.3C765 54.7 779 51.3 793 50.3C807 49.3 821 50.7 835 50.8C849 51 863 50 876.8 49.3C890.7 48.7 904.3 48.3 918.2 47C932 45.7 946 43.3 953 42.2L960 41L960 0L953 0C946 0 932 0 918.2 0C904.3 0 890.7 0 876.8 0C863 0 849 0 835 0C821 0 807 0 793 0C779 0 765 0 751.2 0C737.3 0 723.7 0 709.8 0C696 0 682 0 668 0C654 0 640 0 626 0C612 0 598 0 584.2 0C570.3 0 556.7 0 542.8 0C529 0 515 0 501 0C487 0 473 0 459 0C445 0 431 0 417.2 0C403.3 0 389.7 0 375.8 0C362 0 348 0 334 0C320 0 306 0 292 0C278 0 264 0 250.2 0C236.3 0 222.7 0 208.8 0C195 0 181 0 167 0C153 0 139 0 125 0C111 0 97 0 83.2 0C69.3 0 55.7 0 41.8 0C28 0 14 0 7 0L0 0Z" fill="#b0ffb6"></path><path d="M0 26L7 27.7C14 29.3 28 32.7 41.8 33.3C55.7 34 69.3 32 83.2 30.3C97 28.7 111 27.3 125 26.7C139 26 153 26 167 27.8C181 29.7 195 33.3 208.8 36.3C222.7 39.3 236.3 41.7 250.2 40.2C264 38.7 278 33.3 292 31.8C306 30.3 320 32.7 334 36.2C348 39.7 362 44.3 375.8 44.2C389.7 44 403.3 39 417.2 35.7C431 32.3 445 30.7 459 31.7C473 32.7 487 36.3 501 38C515 39.7 529 39.3 542.8 38C556.7 36.7 570.3 34.3 584.2 34.7C598 35 612 38 626 40C640 42 654 43 668 43.5C682 44 696 44 709.8 42.3C723.7 40.7 737.3 37.3 751.2 35C765 32.7 779 31.3 793 31.7C807 32 821 34 835 33.3C849 32.7 863 29.3 876.8 29.8C890.7 30.3 904.3 34.7 918.2 34.8C932 35 946 31 953 29L960 27L960 0L953 0C946 0 932 0 918.2 0C904.3 0 890.7 0 876.8 0C863 0 849 0 835 0C821 0 807 0 793 0C779 0 765 0 751.2 0C737.3 0 723.7 0 709.8 0C696 0 682 0 668 0C654 0 640 0 626 0C612 0 598 0 584.2 0C570.3 0 556.7 0 542.8 0C529 0 515 0 501 0C487 0 473 0 459 0C445 0 431 0 417.2 0C403.3 0 389.7 0 375.8 0C362 0 348 0 334 0C320 0 306 0 292 0C278 0 264 0 250.2 0C236.3 0 222.7 0 208.8 0C195 0 181 0 167 0C153 0 139 0 125 0C111 0 97 0 83.2 0C69.3 0 55.7 0 41.8 0C28 0 14 0 7 0L0 0Z" fill="#ccffce"></path><path d="M0 28L7 26.5C14 25 28 22 41.8 21.2C55.7 20.3 69.3 21.7 83.2 21C97 20.3 111 17.7 125 16C139 14.3 153 13.7 167 15.8C181 18 195 23 208.8 26.8C222.7 30.7 236.3 33.3 250.2 31.7C264 30 278 24 292 21.5C306 19 320 20 334 19.3C348 18.7 362 16.3 375.8 16.8C389.7 17.3 403.3 20.7 417.2 22.2C431 23.7 445 23.3 459 24.8C473 26.3 487 29.7 501 31.8C515 34 529 35 542.8 32.2C556.7 29.3 570.3 22.7 584.2 18.7C598 14.7 612 13.3 626 12.7C640 12 654 12 668 15.5C682 19 696 26 709.8 28.3C723.7 30.7 737.3 28.3 751.2 27.7C765 27 779 28 793 27.2C807 26.3 821 23.7 835 21.5C849 19.3 863 17.7 876.8 17.5C890.7 17.3 904.3 18.7 918.2 19.2C932 19.7 946 19.3 953 19.2L960 19L960 0L953 0C946 0 932 0 918.2 0C904.3 0 890.7 0 876.8 0C863 0 849 0 835 0C821 0 807 0 793 0C779 0 765 0 751.2 0C737.3 0 723.7 0 709.8 0C696 0 682 0 668 0C654 0 640 0 626 0C612 0 598 0 584.2 0C570.3 0 556.7 0 542.8 0C529 0 515 0 501 0C487 0 473 0 459 0C445 0 431 0 417.2 0C403.3 0 389.7 0 375.8 0C362 0 348 0 334 0C320 0 306 0 292 0C278 0 264 0 250.2 0C236.3 0 222.7 0 208.8 0C195 0 181 0 167 0C153 0 139 0 125 0C111 0 97 0 83.2 0C69.3 0 55.7 0 41.8 0C28 0 14 0 7 0L0 0Z" fill="#e6ffe6"></path><path d="M0 6L7 8.8C14 11.7 28 17.3 41.8 17.3C55.7 17.3 69.3 11.7 83.2 10.2C97 8.7 111 11.3 125 13.2C139 15 153 16 167 14.2C181 12.3 195 7.7 208.8 7.5C222.7 7.3 236.3 11.7 250.2 14C264 16.3 278 16.7 292 15.3C306 14 320 11 334 9.7C348 8.3 362 8.7 375.8 8.2C389.7 7.7 403.3 6.3 417.2 7C431 7.7 445 10.3 459 9.5C473 8.7 487 4.3 501 5C515 5.7 529 11.3 542.8 13.8C556.7 16.3 570.3 15.7 584.2 16.8C598 18 612 21 626 19.8C640 18.7 654 13.3 668 9.3C682 5.3 696 2.7 709.8 3.2C723.7 3.7 737.3 7.3 751.2 7.5C765 7.7 779 4.3 793 6C807 7.7 821 14.3 835 15.3C849 16.3 863 11.7 876.8 12C890.7 12.3 904.3 17.7 918.2 19.2C932 20.7 946 18.3 953 17.2L960 16L960 0L953 0C946 0 932 0 918.2 0C904.3 0 890.7 0 876.8 0C863 0 849 0 835 0C821 0 807 0 793 0C779 0 765 0 751.2 0C737.3 0 723.7 0 709.8 0C696 0 682 0 668 0C654 0 640 0 626 0C612 0 598 0 584.2 0C570.3 0 556.7 0 542.8 0C529 0 515 0 501 0C487 0 473 0 459 0C445 0 431 0 417.2 0C403.3 0 389.7 0 375.8 0C362 0 348 0 334 0C320 0 306 0 292 0C278 0 264 0 250.2 0C236.3 0 222.7 0 208.8 0C195 0 181 0 167 0C153 0 139 0 125 0C111 0 97 0 83.2 0C69.3 0 55.7 0 41.8 0C28 0 14 0 7 0L0 0Z" fill="#ffffff"></path></svg>