<svg id="visual" viewBox="0 0 960 70" width="960" height="70" xmlns="http://www.w3.org/2000/svg" xmlns:xlink="http://www.w3.org/1999/xlink" version="1.1"><path d="M0 18L12.3 20C24.7 22 49.3 26 74 25.2C98.7 24.3 123.3 18.7 148 22.7C172.7 26.7 197.3 40.3 221.8 41.5C246.3 42.7 270.7 31.3 295.2 33.3C319.7 35.3 344.3 50.7 369 55C393.7 59.3 418.3 52.7 443 45.2C467.7 37.7 492.3 29.3 517 26.7C541.7 24 566.3 27 591 28.3C615.7 29.7 640.3 29.3 664.8 27C689.3 24.7 713.7 20.3 738.2 25.2C762.7 30 787.3 44 812 44C836.7 44 861.3 30 886 22.2C910.7 14.3 935.3 12.7 947.7 11.8L960 11L960 0L947.7 0C935.3 0 910.7 0 886 0C861.3 0 836.7 0 812 0C787.3 0 762.7 0 738.2 0C713.7 0 689.3 0 664.8 0C640.3 0 615.7 0 591 0C566.3 0 541.7 0 517 0C492.3 0 467.7 0 443 0C418.3 0 393.7 0 369 0C344.3 0 319.7 0 295.2 0C270.7 0 246.3 0 221.8 0C197.3 0 172.7 0 148 0C123.3 0 98.7 0 74 0C49.3 0 24.7 0 12.3 0L0 0Z" fill="#50bf5c"></path><path d="M0 8L12.3 12.8C24.7 17.7 49.3 27.3 74 34.5C98.7 41.7 123.3 46.3 148 48.3C172.7 50.3 197.3 49.7 221.8 43.5C246.3 37.3 270.7 25.7 295.2 18.5C319.7 11.3 344.3 8.7 369 16.3C393.7 24 418.3 42 443 45.8C467.7 49.7 492.3 39.3 517 36.2C541.7 33 566.3 37 591 37.8C615.7 38.7 640.3 36.3 664.8 38.2C689.3 40 713.7 46 738.2 40.3C762.7 34.7 787.3 17.3 812 17.2C836.7 17 861.3 34 886 39.7C910.7 45.3 935.3 39.7 947.7 36.8L960 34L960 0L947.7 0C935.3 0 910.7 0 886 0C861.3 0 836.7 0 812 0C787.3 0 762.7 0 738.2 0C713.7 0 689.3 0 664.8 0C640.3 0 615.7 0 591 0C566.3 0 541.7 0 517 0C492.3 0 467.7 0 443 0C418.3 0 393.7 0 369 0C344.3 0 319.7 0 295.2 0C270.7 0 246.3 0 221.8 0C197.3 0 172.7 0 148 0C123.3 0 98.7 0 74 0C49.3 0 24.7 0 12.3 0L0 0Z" fill="#58c764"></path><path d="M0 1L12.3 3.2C24.7 5.3 49.3 9.7 74 16.7C98.7 23.7 123.3 33.3 148 33.3C172.7 33.3 197.3 23.7 221.8 23.8C246.3 24 270.7 34 295.2 32.2C319.7 30.3 344.3 16.7 369 10.3C393.7 4 418.3 5 443 8C467.7 11 492.3 16 517 23.2C541.7 30.3 566.3 39.7 591 43.5C615.7 47.3 640.3 45.7 664.8 39.7C689.3 33.7 713.7 23.3 738.2 19.7C762.7 16 787.3 19 812 24.3C836.7 29.7 861.3 37.3 886 39.5C910.7 41.7 935.3 38.3 947.7 36.7L960 35L960 0L947.7 0C935.3 0 910.7 0 886 0C861.3 0 836.7 0 812 0C787.3 0 762.7 0 738.2 0C713.7 0 689.3 0 664.8 0C640.3 0 615.7 0 591 0C566.3 0 541.7 0 517 0C492.3 0 467.7 0 443 0C418.3 0 393.7 0 369 0C344.3 0 319.7 0 295.2 0C270.7 0 246.3 0 221.8 0C197.3 0 172.7 0 148 0C123.3 0 98.7 0 74 0C49.3 0 24.7 0 12.3 0L0 0Z" fill="#61cf6c"></path><path d="M0 41L12.3 36.8C24.7 32.7 49.3 24.3 74 24.2C98.7 24 123.3 32 148 32.8C172.7 33.7 197.3 27.3 221.8 25.8C246.3 24.3 270.7 27.7 295.2 30.5C319.7 33.3 344.3 35.7 369 33C393.7 30.3 418.3 22.7 443 16.7C467.7 10.7 492.3 6.3 517 4.5C541.7 2.7 566.3 3.3 591 10C615.7 16.7 640.3 29.3 664.8 34.8C689.3 40.3 713.7 38.7 738.2 34.7C762.7 30.7 787.3 24.3 812 20.2C836.7 16 861.3 14 886 14.2C910.7 14.3 935.3 16.7 947.7 17.8L960 19L960 0L947.7 0C935.3 0 910.7 0 886 0C861.3 0 836.7 0 812 0C787.3 0 762.7 0 738.2 0C713.7 0 689.3 0 664.8 0C640.3 0 615.7 0 591 0C566.3 0 541.7 0 517 0C492.3 0 467.7 0 443 0C418.3 0 393.7 0 369 0C344.3 0 319.7 0 295.2 0C270.7 0 246.3 0 221.8 0C197.3 0 172.7 0 148 0C123.3 0 98.7 0 74 0C49.3 0 24.7 0 12.3 0L0 0Z" fill="#69d774"></path><path d="M0 13L12.3 13C24.7 13 49.3 13 74 17.3C98.7 21.7 123.3 30.3 148 28.2C172.7 26 197.3 13 221.8 8.8C246.3 4.7 270.7 9.3 295.2 11.8C319.7 14.3 344.3 14.7 369 14.3C393.7 14 418.3 13 443 12.5C467.7 12 492.3 12 517 16.5C541.7 21 566.3 30 591 32C615.7 34 640.3 29 664.8 22.7C689.3 16.3 713.7 8.7 738.2 5.2C762.7 1.7 787.3 2.3 812 6.2C836.7 10 861.3 17 886 20.7C910.7 24.3 935.3 24.7 947.7 24.8L960 25L960 0L947.7 0C935.3 0 910.7 0 886 0C861.3 0 836.7 0 812 0C787.3 0 762.7 0 738.2 0C713.7 0 689.3 0 664.8 0C640.3 0 615.7 0 591 0C566.3 0 541.7 0 517 0C492.3 0 467.7 0 443 0C418.3 0 393.7 0 369 0C344.3 0 319.7 0 295.2 0C270.7 0 246.3 0 221.8 0C197.3 0 172.7 0 148 0C123.3 0 98.7 0 74 0C49.3 0 24.7 0 12.3 0L0 0Z" fill="#71df7c"></path><path d="M0 24L12.3 24.5C24.7 25 49.3 26 74 27.2C98.7 28.3 123.3 29.7 148 27.2C172.7 24.7 197.3 18.3 221.8 16C246.3 13.7 270.7 15.3 295.2 18C319.7 20.7 344.3 24.3 369 21.5C393.7 18.7 418.3 9.3 443 7.7C467.7 6 492.3 12 517 15.3C541.7 18.7 566.3 19.3 591 20C615.7 20.7 640.3 21.3 664.8 18.7C689.3 16 713.7 10 738.2 9.2C762.7 8.3 787.3 12.7 812 15.7C836.7 18.7 861.3 20.3 886 20.5C910.7 20.7 935.3 19.3 947.7 18.7L960 18L960 0L947.7 0C935.3 0 910.7 0 886 0C861.3 0 836.7 0 812 0C787.3 0 762.7 0 738.2 0C713.7 0 689.3 0 664.8 0C640.3 0 615.7 0 591 0C566.3 0 541.7 0 517 0C492.3 0 467.7 0 443 0C418.3 0 393.7 0 369 0C344.3 0 319.7 0 295.2 0C270.7 0 246.3 0 221.8 0C197.3 0 172.7 0 148 0C123.3 0 98.7 0 74 0C49.3 0 24.7 0 12.3 0L0 0Z" fill="#79e784"></path><path d="M0 24L12.3 20.2C24.7 16.3 49.3 8.7 74 9.2C98.7 9.7 123.3 18.3 148 20.7C172.7 23 197.3 19 221.8 14.7C246.3 10.3 270.7 5.7 295.2 4.7C319.7 3.7 344.3 6.3 369 10C393.7 13.7 418.3 18.3 443 20.3C467.7 22.3 492.3 21.7 517 19.3C541.7 17 566.3 13 591 12.7C615.7 12.3 640.3 15.7 664.8 18.5C689.3 21.3 713.7 23.7 738.2 24.2C762.7 24.7 787.3 23.3 812 20.5C836.7 17.7 861.3 13.3 886 11C910.7 8.7 935.3 8.3 947.7 8.2L960 8L960 0L947.7 0C935.3 0 910.7 0 886 0C861.3 0 836.7 0 812 0C787.3 0 762.7 0 738.2 0C713.7 0 689.3 0 664.8 0C640.3 0 615.7 0 591 0C566.3 0 541.7 0 517 0C492.3 0 467.7 0 443 0C418.3 0 393.7 0 369 0C344.3 0 319.7 0 295.2 0C270.7 0 246.3 0 221.8 0C197.3 0 172.7 0 148 0C123.3 0 98.7 0 74 0C49.3 0 24.7 0 12.3 0L0 0Z" fill="#81ef8c"></path><path d="M0 7L12.3 9C24.7 11 49.3 15 74 15.3C98.7 15.7 123.3 12.3 148 9.7C172.7 7 197.3 5 221.8 6.7C246.3 8.3 270.7 13.7 295.2 15.2C319.7 16.7 344.3 14.3 369 13.8C393.7 13.3 418.3 14.7 443 13.2C467.7 11.7 492.3 7.3 517 7.7C541.7 8 566.3 13 591 15C615.7 17 640.3 16 664.8 16C689.3 16 713.7 17 738.2 14.8C762.7 12.7 787.3 7.3 812 6C836.7 4.7 861.3 7.3 886 9.5C910.7 11.7 935.3 13.3 947.7 14.2L960 15L960 0L947.7 0C935.3 0 910.7 0 886 0C861.3 0 836.7 0 812 0C787.3 0 762.7 0 738.2 0C713.7 0 689.3 0 664.8 0C640.3 0 615.7 0 591 0C566.3 0 541.7 0 517 0C492.3 0 467.7 0 443 0C418.3 0 393.7 0 369 0C344.3 0 319.7 0 295.2 0C270.7 0 246.3 0 221.8 0C197.3 0 172.7 0 148 0C123.3 0 98.7 0 74 0C49.3 0 24.7 0 12.3 0L0 0Z" fill="#89f795"></path><path d="M0 10L12.3 8.3C24.7 6.7 49.3 3.3 74 3.5C98.7 3.7 123.3 7.3 148 7.5C172.7 7.7 197.3 4.3 221.8 2.7C246.3 1 270.7 1 295.2 2.7C319.7 4.3 344.3 7.7 369 7.7C393.7 7.7 418.3 4.3 443 3.7C467.7 3 492.3 5 517 6C541.7 7 566.3 7 591 6.5C615.7 6 640.3 5 664.8 4.5C689.3 4 713.7 4 738.2 3.7C762.7 3.3 787.3 2.7 812 4C836.7 5.3 861.3 8.7 886 9.2C910.7 9.7 935.3 7.3 947.7 6.2L960 5L960 0L947.7 0C935.3 0 910.7 0 886 0C861.3 0 836.7 0 812 0C787.3 0 762.7 0 738.2 0C713.7 0 689.3 0 664.8 0C640.3 0 615.7 0 591 0C566.3 0 541.7 0 517 0C492.3 0 467.7 0 443 0C418.3 0 393.7 0 369 0C344.3 0 319.7 0 295.2 0C270.7 0 246.3 0 221.8 0C197.3 0 172.7 0 148 0C123.3 0 98.7 0 74 0C49.3 0 24.7 0 12.3 0L0 0Z" fill="#91ff9d"></path></svg>