<svg id="visual" viewBox="0 0 960 75" width="960" height="75" xmlns="http://www.w3.org/2000/svg" xmlns:xlink="http://www.w3.org/1999/xlink" version="1.1"><path d="M0 19L11.5 24.5C23 30 46 41 68.8 41.2C91.7 41.3 114.3 30.7 137.2 28.2C160 25.7 183 31.3 205.8 36.5C228.7 41.7 251.3 46.3 274.2 43C297 39.7 320 28.3 342.8 24.5C365.7 20.7 388.3 24.3 411.2 30.5C434 36.7 457 45.3 480 44.5C503 43.7 526 33.3 548.8 28.7C571.7 24 594.3 25 617.2 29.5C640 34 663 42 685.8 40.8C708.7 39.7 731.3 29.3 754.2 27.3C777 25.3 800 31.7 822.8 35.8C845.7 40 868.3 42 891.2 42.5C914 43 937 42 948.5 41.5L960 41L960 0L948.5 0C937 0 914 0 891.2 0C868.3 0 845.7 0 822.8 0C800 0 777 0 754.2 0C731.3 0 708.7 0 685.8 0C663 0 640 0 617.2 0C594.3 0 571.7 0 548.8 0C526 0 503 0 480 0C457 0 434 0 411.2 0C388.3 0 365.7 0 342.8 0C320 0 297 0 274.2 0C251.3 0 228.7 0 205.8 0C183 0 160 0 137.2 0C114.3 0 91.7 0 68.8 0C46 0 23 0 11.5 0L0 0Z" fill="#ffffff"></path><path d="M0 45L11.5 43C23 41 46 37 68.8 38.3C91.7 39.7 114.3 46.3 137.2 49.3C160 52.3 183 51.7 205.8 45C228.7 38.3 251.3 25.7 274.2 25.3C297 25 320 37 342.8 41.2C365.7 45.3 388.3 41.7 411.2 39.3C434 37 457 36 480 33.2C503 30.3 526 25.7 548.8 27.2C571.7 28.7 594.3 36.3 617.2 41.7C640 47 663 50 685.8 45.7C708.7 41.3 731.3 29.7 754.2 23.5C777 17.3 800 16.7 822.8 22C845.7 27.3 868.3 38.7 891.2 41.8C914 45 937 40 948.5 37.5L960 35L960 0L948.5 0C937 0 914 0 891.2 0C868.3 0 845.7 0 822.8 0C800 0 777 0 754.2 0C731.3 0 708.7 0 685.8 0C663 0 640 0 617.2 0C594.3 0 571.7 0 548.8 0C526 0 503 0 480 0C457 0 434 0 411.2 0C388.3 0 365.7 0 342.8 0C320 0 297 0 274.2 0C251.3 0 228.7 0 205.8 0C183 0 160 0 137.2 0C114.3 0 91.7 0 68.8 0C46 0 23 0 11.5 0L0 0Z" fill="#ebffeb"></path><path d="M0 7L11.5 11C23 15 46 23 68.8 24C91.7 25 114.3 19 137.2 19.7C160 20.3 183 27.7 205.8 32.2C228.7 36.7 251.3 38.3 274.2 38.3C297 38.3 320 36.7 342.8 36.7C365.7 36.7 388.3 38.3 411.2 36.7C434 35 457 30 480 28.3C503 26.7 526 28.3 548.8 27.2C571.7 26 594.3 22 617.2 20C640 18 663 18 685.8 20C708.7 22 731.3 26 754.2 26.3C777 26.7 800 23.3 822.8 23.8C845.7 24.3 868.3 28.7 891.2 28.8C914 29 937 25 948.5 23L960 21L960 0L948.5 0C937 0 914 0 891.2 0C868.3 0 845.7 0 822.8 0C800 0 777 0 754.2 0C731.3 0 708.7 0 685.8 0C663 0 640 0 617.2 0C594.3 0 571.7 0 548.8 0C526 0 503 0 480 0C457 0 434 0 411.2 0C388.3 0 365.7 0 342.8 0C320 0 297 0 274.2 0C251.3 0 228.7 0 205.8 0C183 0 160 0 137.2 0C114.3 0 91.7 0 68.8 0C46 0 23 0 11.5 0L0 0Z" fill="#d7ffd8"></path><path d="M0 12L11.5 12.3C23 12.7 46 13.3 68.8 12.7C91.7 12 114.3 10 137.2 10C160 10 183 12 205.8 14.8C228.7 17.7 251.3 21.3 274.2 22C297 22.7 320 20.3 342.8 20C365.7 19.7 388.3 21.3 411.2 21.2C434 21 457 19 480 21C503 23 526 29 548.8 30.8C571.7 32.7 594.3 30.3 617.2 29.7C640 29 663 30 685.8 28C708.7 26 731.3 21 754.2 20.5C777 20 800 24 822.8 26.7C845.7 29.3 868.3 30.7 891.2 29.2C914 27.7 937 23.3 948.5 21.2L960 19L960 0L948.5 0C937 0 914 0 891.2 0C868.3 0 845.7 0 822.8 0C800 0 777 0 754.2 0C731.3 0 708.7 0 685.8 0C663 0 640 0 617.2 0C594.3 0 571.7 0 548.8 0C526 0 503 0 480 0C457 0 434 0 411.2 0C388.3 0 365.7 0 342.8 0C320 0 297 0 274.2 0C251.3 0 228.7 0 205.8 0C183 0 160 0 137.2 0C114.3 0 91.7 0 68.8 0C46 0 23 0 11.5 0L0 0Z" fill="#c1ffc4"></path><path d="M0 17L11.5 15C23 13 46 9 68.8 8.5C91.7 8 114.3 11 137.2 13.7C160 16.3 183 18.7 205.8 19C228.7 19.3 251.3 17.7 274.2 15.3C297 13 320 10 342.8 8.3C365.7 6.7 388.3 6.3 411.2 6.3C434 6.3 457 6.7 480 7.7C503 8.7 526 10.3 548.8 10.2C571.7 10 594.3 8 617.2 8C640 8 663 10 685.8 12.3C708.7 14.7 731.3 17.3 754.2 16.5C777 15.7 800 11.3 822.8 11.5C845.7 11.7 868.3 16.3 891.2 16.7C914 17 937 13 948.5 11L960 9L960 0L948.5 0C937 0 914 0 891.2 0C868.3 0 845.7 0 822.8 0C800 0 777 0 754.2 0C731.3 0 708.7 0 685.8 0C663 0 640 0 617.2 0C594.3 0 571.7 0 548.8 0C526 0 503 0 480 0C457 0 434 0 411.2 0C388.3 0 365.7 0 342.8 0C320 0 297 0 274.2 0C251.3 0 228.7 0 205.8 0C183 0 160 0 137.2 0C114.3 0 91.7 0 68.8 0C46 0 23 0 11.5 0L0 0Z" fill="#aaffb1"></path><path d="M0 15L11.5 13.7C23 12.3 46 9.7 68.8 9C91.7 8.3 114.3 9.7 137.2 9C160 8.3 183 5.7 205.8 5.5C228.7 5.3 251.3 7.7 274.2 7.7C297 7.7 320 5.3 342.8 6.2C365.7 7 388.3 11 411.2 11.3C434 11.7 457 8.3 480 7.5C503 6.7 526 8.3 548.8 8.2C571.7 8 594.3 6 617.2 5.7C640 5.3 663 6.7 685.8 7.8C708.7 9 731.3 10 754.2 10.5C777 11 800 11 822.8 10.7C845.7 10.3 868.3 9.7 891.2 10C914 10.3 937 11.7 948.5 12.3L960 13L960 0L948.5 0C937 0 914 0 891.2 0C868.3 0 845.7 0 822.8 0C800 0 777 0 754.2 0C731.3 0 708.7 0 685.8 0C663 0 640 0 617.2 0C594.3 0 571.7 0 548.8 0C526 0 503 0 480 0C457 0 434 0 411.2 0C388.3 0 365.7 0 342.8 0C320 0 297 0 274.2 0C251.3 0 228.7 0 205.8 0C183 0 160 0 137.2 0C114.3 0 91.7 0 68.8 0C46 0 23 0 11.5 0L0 0Z" fill="#91ff9d"></path></svg>